HIERARCHY
ROOT hip
{
	OFFSET 0.000000 0.000000 0.000000 
	CHANNELS 6 Xposition Yposition Zposition Xrotation Zrotation Yrotation
	JOINT abdomen
	{
		OFFSET 0.000000 3.402643 0.000000 
		CHANNELS 3 Xrotation Zrotation Yrotation
		JOINT chest
		{
			OFFSET 0.000000 8.438565 -0.680529 
			CHANNELS 3 Xrotation Zrotation Yrotation
			JOINT neck
			{
				OFFSET 0.000000 10.207942 -0.272212 
				CHANNELS 3 Xrotation Zrotation Yrotation
				JOINT head
				{
					OFFSET 0.000000 3.130431 0.000000 
					CHANNELS 3 Xrotation Zrotation Yrotation
					End Site
					{
						OFFSET 0.000000 3.130435 0.000000 
					}
				}
			}
			JOINT lCollar
			{
				OFFSET 3.470700 6.669187 -0.816635 
				CHANNELS 3 Yrotation Zrotation Xrotation
				JOINT lShldr
				{
					OFFSET 3.198488 0.000000 0.000000 
					CHANNELS 3 Zrotation Yrotation Xrotation
					JOINT lForeArm
					{
						OFFSET 10.139888 0.000000 0.000000 
						CHANNELS 3 Yrotation Zrotation Xrotation
						JOINT lHand
						{
							OFFSET 8.370511 0.000000 0.000000 
							CHANNELS 3 Zrotation Yrotation Xrotation
							End Site
							{
								OFFSET 4.083176 0.000000 0.000000 
							}
						}
					}
				}
			}
			JOINT rCollar
			{
				OFFSET -3.470700 6.669187 -0.816635 
				CHANNELS 3 Yrotation Zrotation Xrotation
				JOINT rShldr
				{
					OFFSET -3.198488 0.000000 0.000000 
					CHANNELS 3 Zrotation Yrotation Xrotation
					JOINT rForeArm
					{
						OFFSET -10.139888 0.000000 0.000000 
						CHANNELS 3 Yrotation Zrotation Xrotation
						JOINT rHand
						{
							OFFSET -8.370511 0.000000 0.000000 
							CHANNELS 3 Zrotation Yrotation Xrotation
							End Site
							{
								OFFSET -4.083176 0.000000 0.000000 
							}
						}
					}
				}
			}
		}
	}
	JOINT lThigh
	{
		OFFSET 5.308129 -1.633274 1.361059 
		CHANNELS 3 Xrotation Zrotation Yrotation
		JOINT lShin
		{
			OFFSET -2.041588 -20.007561 0.000000 
			CHANNELS 3 Xrotation Zrotation Yrotation
			JOINT lFoot
			{
				OFFSET 0.000000 -19.190928 -1.224953 
				CHANNELS 3 Xrotation Yrotation Zrotation
				End Site
				{
					OFFSET 0.000000 -2.449906 4.627600 
				}
			}
		}
	}
	JOINT rThigh
	{
		OFFSET -5.308129 -1.633274 1.361059 
		CHANNELS 3 Xrotation Zrotation Yrotation
		JOINT rShin
		{
			OFFSET 2.041588 -20.007561 0.000000 
			CHANNELS 3 Xrotation Zrotation Yrotation
			JOINT rFoot
			{
				OFFSET 0.000000 -19.190928 -1.224953 
				CHANNELS 3 Xrotation Yrotation Zrotation
				End Site
				{
					OFFSET 0.000000 -2.449906 4.627600 
				}
			}
		}
	}
}
MOTION
Frames: 19
Frame Time: 0.016667
-0.675284 45.160946 0.708030 14.860000 19.001301 -20.188400 -13.430000 9.916260 2.960080 20.586201 7.216800 2.709990 24.839500 12.510400 -14.741400 17.307301 6.465850 -7.026540 2.000000 -2.000000 0.000000 -88.140198 3.390960 -153.561996 74.727097 -0.250863 0.131937 0.180813 -0.158593 141.779007 -2.000000 2.000000 0.000000 98.482697 44.043301 -154.712006 -28.613600 0.334867 0.065476 -0.057414 0.030953 -148.044998 -22.245337 -6.513602 -8.511633 12.799455 1.369107 1.611346 4.147889 -18.621078 1.204707 -40.416924 -8.633709 -2.143197 34.117672 -1.965730 -2.822498 -17.113253 -10.442394 -2.878627 
-0.734228 45.157597 0.749309 14.998300 19.151501 -20.777100 -13.385400 9.875810 3.076490 20.645201 7.128900 2.775790 25.057301 12.326700 -14.582500 17.395201 6.444320 -6.962540 2.000000 -2.000000 0.000000 -88.090202 2.689920 -152.584000 74.893097 -0.250481 0.132041 0.180408 -0.158530 141.925995 -2.000000 2.000000 0.000000 99.542900 42.869999 -154.059998 -29.004200 0.334418 0.066293 -0.059588 0.040469 -151.531006 -22.558199 -6.413049 -8.551020 13.220257 1.399094 1.651835 3.968356 -18.314426 1.150089 -40.488003 -8.368423 -2.069068 33.675880 -1.972860 -2.795889 -16.963440 -10.014617 -2.699076 
-0.747701 45.143463 0.788823 15.159900 19.432600 -21.370600 -13.449800 9.795680 3.135090 20.596001 7.031250 2.789180 25.285101 12.090800 -14.385400 17.463100 6.413850 -6.873740 2.000000 -2.000000 0.000000 -88.049599 1.335330 -151.233002 74.902901 -0.250458 0.132047 0.177386 -0.167796 143.020004 -2.000000 2.000000 0.000000 100.538002 42.167900 -154.550003 -29.248400 0.334135 0.066802 -0.071858 0.058846 -154.733994 -22.936390 -6.466816 -8.569012 13.612368 1.413842 1.672210 3.627338 -17.834499 1.048098 -40.604038 -8.190279 -1.823950 33.108311 -1.961339 -2.776701 -16.702843 -9.731010 -2.578691 
-0.761175 45.129200 0.828333 15.312000 19.714001 -21.969200 -13.514200 9.715590 3.195560 20.546801 6.933590 2.801560 25.513000 11.864800 -14.178300 17.540600 6.373620 -6.786200 2.000000 -2.000000 0.000000 -88.038200 -0.009519 -149.882996 74.902901 -0.250458 0.132047 0.174374 -0.167239 144.113007 -2.000000 2.000000 0.000000 101.532997 41.475700 -155.056000 -29.492500 0.333849 0.067310 -0.074839 0.057539 -157.936996 -23.371042 -6.536420 -8.576445 14.141307 1.444979 1.720374 3.211688 -17.390854 0.944320 -40.782131 -8.002309 -1.562203 32.658005 -1.950517 -2.754993 -16.500330 -9.450561 -2.445485 
-0.745640 45.140507 0.876709 15.311800 20.027599 -22.719200 -13.538900 9.542180 3.172770 20.497601 6.767580 2.756770 25.627800 11.606500 -13.901000 17.549900 6.354350 -6.652940 2.000000 -2.000000 0.000000 -88.173401 -2.028300 -148.561005 74.717300 -0.250886 0.131931 0.169505 -0.166211 145.891006 -2.000000 2.000000 0.000000 102.461998 41.341702 -156.319000 -29.678101 0.333630 0.067695 -0.076580 0.061879 -159.606995 -23.457743 -6.656380 -8.546619 14.220515 1.441361 1.727654 3.084354 -16.788809 0.912168 -40.948875 -7.974784 -1.416867 32.382671 -1.958690 -2.734146 -15.982573 -8.896634 -2.144383 
-0.730106 45.151821 0.925087 15.301600 20.342100 -23.462999 -13.563600 9.368810 3.151750 20.448500 6.611320 2.722010 25.743099 11.348800 -13.624900 17.569201 6.344290 -6.516340 2.000000 -2.000000 0.000000 -88.357399 -4.047090 -147.229004 74.522003 -0.251335 0.131808 0.164696 -0.155273 147.658005 -2.000000 2.000000 0.000000 103.380997 41.227299 -157.589005 -29.863600 0.333411 0.068079 -0.078457 0.066192 -161.287003 -23.542282 -6.780352 -8.507530 14.279915 1.439674 1.735651 2.963763 -16.205280 0.907152 -41.116188 -7.948026 -1.261882 32.088531 -1.967107 -2.733478 -15.451495 -8.349288 -1.885960 
-0.751067 45.193577 0.952777 15.291200 20.343000 -24.472300 -13.493800 9.397570 3.204140 20.438601 6.699200 2.730470 25.762300 10.914100 -13.339400 17.508101 6.270000 -6.385740 2.000000 -2.000000 0.000000 -88.766098 -6.700310 -145.699997 74.033699 -0.252457 0.131492 0.157178 -0.162887 150.451004 -2.000000 2.000000 0.000000 103.392998 41.473801 -158.643005 -30.625299 0.332495 0.069649 -0.081225 0.071991 -163.582001 -23.490620 -6.487007 -8.297188 14.338053 1.446917 1.734918 2.858217 -15.729388 0.917051 -40.940792 -7.405537 -0.869163 31.412382 -1.944911 -2.675110 -14.946556 -8.111366 -1.747342 
-0.772026 45.235344 0.980467 15.270500 20.344900 -25.484900 -13.434100 9.422600 3.246140 20.438601 6.796860 2.749800 25.774200 10.480700 -13.066900 17.447100 6.195670 -6.253920 2.000000 -2.000000 0.000000 -89.243202 -9.333970 -144.132996 73.535698 -0.253598 0.131160 0.149799 -0.160380 153.235001 -2.000000 2.000000 0.000000 103.394997 41.720299 -159.707001 -31.387100 0.331559 0.071207 -0.084237 0.077699 -165.886993 -23.500137 -6.215285 -8.065938 14.587895 1.495455 1.723871 2.661083 -15.225494 0.906129 -40.819340 -6.864316 -0.475429 30.853600 -1.942950 -2.648595 -14.490050 -7.877108 -1.584484 
-0.733307 45.258339 1.013465 15.322800 20.549299 -26.026600 -13.487800 9.276940 2.963680 20.359900 6.796840 2.584310 26.032000 9.997070 -12.628300 17.503300 6.099070 -6.026100 2.000000 -2.000000 0.000000 -89.720596 -12.319300 -142.593994 72.637299 -0.255649 0.130537 0.141620 -0.157121 156.378998 -2.000000 2.000000 0.000000 103.153999 42.202702 -161.425003 -32.529598 0.330116 0.073520 -0.086812 0.091945 -167.731995 -23.559580 -6.203024 -7.982541 14.443991 1.466813 1.734350 2.689011 -15.010534 0.914604 -40.858768 -6.769522 -0.187201 30.384140 -1.931026 -2.636938 -14.194373 -7.713953 -1.529695 
-0.694586 45.281212 1.046460 15.376300 20.763100 -26.559200 -13.550900 9.130960 2.681630 20.291100 6.787040 2.429780 26.270399 9.509880 -12.191900 17.569401 6.002250 -5.807220 2.000000 -2.000000 0.000000 -90.295799 -15.285100 -141.016998 71.738800 -0.257690 0.129881 0.133656 -0.153430 159.514008 -2.000000 2.000000 0.000000 102.883003 42.675301 -163.145996 -33.672199 0.328627 0.075804 -0.079765 0.096341 -169.578003 -23.700666 -6.226140 -7.883318 14.464097 1.465782 1.743490 2.639521 -14.812636 0.917270 -40.978107 -6.673141 0.109853 30.051432 -1.921613 -2.622736 -13.965159 -7.565066 -1.444889 
-0.652585 45.292652 1.088947 15.256800 20.926100 -27.538799 -13.506600 8.983310 2.343440 20.330400 6.943310 2.238470 26.553101 8.886280 -11.490700 17.617399 5.962950 -5.469450 2.000000 -2.000000 0.000000 -90.910698 -18.290501 -139.712006 70.576698 -0.260314 0.128986 0.127098 -0.140214 162.160004 -2.000000 2.000000 0.000000 102.349998 43.431000 -164.735992 -34.756199 0.327173 0.077943 179.916000 179.908005 7.970910 -23.541929 -6.127254 -7.406562 14.268778 1.449267 1.727254 2.412283 -14.729443 0.888118 -41.076969 -6.531268 -0.050944 29.825354 -1.928391 -2.610223 -13.235055 -7.002333 -1.162658 
-0.610584 45.304096 1.131433 15.137200 21.089199 -28.519199 -13.451800 8.832500 1.998880 20.359800 7.089800 2.036440 26.827999 8.250370 -10.807200 17.665501 5.923660 -5.132760 2.000000 -2.000000 0.000000 -91.613602 -21.276400 -138.350006 69.404800 -0.262942 0.128030 0.120707 -0.136464 164.807007 -2.000000 2.000000 0.000000 101.787003 44.186600 -166.354996 -35.830502 0.325692 0.080035 179.912003 179.901993 5.519750 -23.424582 -6.027408 -6.934437 14.122415 1.441634 1.730252 2.158664 -14.674887 0.844935 -41.164078 -6.400155 -0.208221 29.599974 -1.922804 -2.594623 -12.498276 -6.444946 -0.902592 
-0.491307 45.294964 1.202663 15.260900 21.363300 -28.961800 -13.654400 8.569100 1.396130 20.222099 7.021370 1.717220 27.223600 7.512430 -10.105600 17.761000 5.826140 -4.784420 2.000000 -2.000000 0.000000 -92.257797 -23.852100 -136.996994 68.145103 -0.265744 0.126942 0.114970 -0.132746 167.248001 -2.000000 2.000000 0.000000 -78.852898 134.947998 10.939000 -36.484798 0.324771 0.081296 179.908997 179.897995 3.674040 -23.474514 -6.096033 -6.878957 13.734203 1.387948 1.705507 1.693096 -14.456964 0.720197 -41.552830 -6.546145 -0.496514 29.512636 -1.911116 -2.593815 -12.076435 -6.079045 -0.756381 
-0.372031 45.285843 1.273892 15.373900 21.628599 -29.396099 -13.854500 8.305630 0.795127 20.094299 6.943140 1.389830 27.602900 6.774470 -9.412360 17.846500 5.719460 -4.429950 2.000000 -2.000000 0.000000 -92.980202 -26.417999 -135.587006 66.885300 -0.268521 0.125792 0.109419 -0.128803 169.679993 -2.000000 2.000000 0.000000 -79.561302 134.100998 8.177390 -37.139099 0.323835 0.082546 179.906006 179.884003 1.828360 -23.608444 -6.188772 -6.798947 13.530749 1.362409 1.708304 1.162724 -14.269202 0.610587 -41.883022 -6.692487 -0.774144 29.298471 -1.894223 -2.594678 -11.602626 -5.698753 -0.625472 
-0.271638 45.282246 1.378162 15.345300 21.850201 -30.259800 -13.991800 8.253730 0.070129 19.955900 7.421470 1.016800 27.903601 5.603560 -8.435430 17.913200 5.641790 -3.963290 2.000000 -2.000000 0.000000 -93.898804 -28.428499 -134.832001 65.684097 -0.271145 0.124640 0.105448 -0.135523 171.466995 -2.000000 2.000000 0.000000 -80.309303 133.294006 5.354360 -37.226898 0.323709 0.082713 179.904007 179.882004 0.607667 -23.278976 -6.155602 -6.325819 12.868747 1.296616 1.680657 0.177209 -13.635335 0.470344 -42.129597 -6.583133 -0.753848 29.141911 -1.882560 -2.576003 -11.241540 -5.625150 -0.558353 
-0.171246 45.278652 1.482436 15.305400 22.063299 -31.120199 -14.126300 8.214460 -0.648979 19.817200 7.899740 0.631752 28.186600 4.420490 -7.471000 17.969999 5.564420 -3.487990 2.000000 -2.000000 0.000000 -94.866096 -30.419300 -134.018005 64.492699 -0.273723 0.123443 -179.897995 -179.876999 -6.745900 -2.000000 2.000000 0.000000 -81.125999 132.514999 2.455860 -37.324600 0.323567 0.082898 179.901001 179.878998 -0.613052 -23.050400 -6.162733 -5.832903 12.429421 1.264348 1.660429 -0.924974 -12.959273 0.311768 -42.378918 -6.472494 -0.697541 28.985449 -1.882584 -2.579622 -10.891631 -5.553340 -0.482362 
-0.053593 45.267464 1.627173 15.354800 22.315599 -32.052799 -14.317800 7.981120 -0.948291 19.649799 7.821300 0.453899 28.435900 3.633440 -6.973610 18.024200 5.382860 -3.205680 2.000000 -2.000000 0.000000 -95.762901 -31.910700 -132.326004 63.467300 -0.275922 0.122370 -179.899994 -179.878998 -5.876760 -2.000000 2.000000 0.000000 -82.880898 131.792999 -1.643980 -36.963299 0.324088 0.082211 179.901001 179.878998 -0.573989 -22.842665 -6.205732 -5.331967 12.145444 1.243939 1.627444 -2.058007 -11.604496 0.310054 -42.695797 -6.298014 -0.527844 28.897844 -1.875379 -2.580048 -10.683810 -5.428341 -0.410358 
0.064061 45.256420 1.771909 15.382600 22.560499 -32.985199 -14.498800 7.748220 -1.244200 19.482401 7.742800 0.265414 28.672100 2.852550 -6.485100 18.068701 5.201620 -2.933460 2.000000 -2.000000 0.000000 -96.727798 -33.392300 -130.591003 62.451698 -0.278081 0.121268 -179.901993 -179.880997 -5.017390 -2.000000 2.000000 0.000000 -84.744598 131.158005 -5.834350 -36.601898 0.324604 0.081521 179.901001 179.880005 -0.534927 -22.508198 -6.226985 -4.842279 11.581033 1.183371 1.598911 -3.019418 -10.259459 0.344734 -42.990063 -6.131709 -0.366523 28.771746 -1.857788 -2.578733 -10.486543 -5.293160 -0.365939 
0.179386 45.287254 1.929532 15.265200 22.743299 -33.983601 -14.490300 7.460770 -1.650360 19.551600 7.664850 0.042911 28.756599 2.288530 -5.815600 18.097401 5.172480 -2.586340 2.000000 -2.000000 0.000000 -97.741997 -34.425598 -129.378006 61.572800 -0.279933 0.120284 -179.901001 -179.878998 -5.710750 -2.000000 2.000000 0.000000 -87.341698 130.692001 -8.870320 -36.035500 0.325405 0.080432 179.901993 179.880005 -0.115007 -21.935541 -6.319135 -4.324922 11.026225 1.132811 1.591246 -3.589119 -8.410542 0.675899 -43.192104 -5.994557 0.304542 28.704308 -1.846872 -2.587464 -10.445465 -5.016547 -0.315529 
